<svg width="37" height="25" viewBox="0 0 37 25" fill="none" xmlns="http://www.w3.org/2000/svg">
<path d="M4.40625 0.3125C2.29859 0.3125 0.5625 1.96391 0.5625 3.96875V21.0312C0.5625 23.0361 2.29859 24.6875 4.40625 24.6875H32.5938C34.7014 24.6875 36.4375 23.0361 36.4375 21.0312V3.96875C36.4375 1.96391 34.7014 0.3125 32.5938 0.3125H4.40625ZM4.40625 2.75H32.5938C33.3189 2.75 33.875 3.27894 33.875 3.96875V21.0312C33.875 21.7211 33.3189 22.25 32.5938 22.25H4.40625C3.68106 22.25 3.125 21.7211 3.125 21.0312V3.96875C3.125 3.27894 3.68106 2.75 4.40625 2.75ZM11.3737 10.2526C10.5716 10.2526 9.972 10.8047 9.972 11.5092C9.972 12.1003 10.2667 12.3952 11.0931 12.6913C11.5736 12.862 11.9733 12.9619 11.9733 13.3763C11.9733 13.7236 11.6889 13.9857 11.293 13.9857C11.0916 13.99 10.8933 13.9382 10.7226 13.8367C10.5518 13.7351 10.416 13.5882 10.332 13.4141L9.73113 13.9089C10.1373 14.4756 10.6626 14.7474 11.3327 14.7474C12.2488 14.7474 12.8548 14.1709 12.8548 13.3373C12.8548 12.6523 12.5742 12.3135 11.5736 11.9662C11.0431 11.7809 10.8932 11.6664 10.8932 11.4336C10.8932 11.1618 11.1533 10.9766 11.5338 10.9766C11.7991 10.9766 12.0233 11.0765 12.2539 11.319L12.7344 10.7474C12.3575 10.4324 11.8754 10.2568 11.3737 10.2526ZM15.5377 10.2526C14.2014 10.2575 13.1341 11.2483 13.1341 12.5C13.1341 13.7614 14.1963 14.7474 15.5377 14.7474C15.917 14.7474 16.2578 14.6621 16.6576 14.4805V13.4896C16.3078 13.8236 15.9785 13.9467 15.5775 13.9467C14.6908 13.9467 14.0553 13.3336 14.0553 12.4622C14.0553 11.6383 14.7113 11.0143 15.5365 11.0143C15.958 11.0143 16.2924 11.1289 16.6588 11.4714V10.4817C16.2732 10.2953 15.9183 10.2526 15.5377 10.2526ZM19.2611 10.2526C18.6348 10.2536 18.0344 10.4907 17.5916 10.9119C17.1487 11.3332 16.8995 11.9043 16.8984 12.5C16.8984 13.7383 17.9593 14.7474 19.2611 14.7474C19.8871 14.7461 20.4872 14.5089 20.9297 14.0876C21.3723 13.6664 21.6214 13.0955 21.6224 12.5C21.6214 11.9045 21.3723 11.3336 20.9297 10.9124C20.4872 10.4911 19.8871 10.2539 19.2611 10.2526ZM4.40625 10.3306V14.634H5.6875C7.65422 14.634 8.12956 13.1715 8.12956 12.5012C8.12956 11.2337 7.11866 10.3306 5.6875 10.3306H4.40625ZM8.53059 10.3306V14.634H9.41081V10.3306H8.53059ZM21.4635 10.3306L23.3854 14.7486H23.8659L25.8262 10.3306H24.8652L23.625 13.2239L22.4232 10.3294L21.4635 10.3306ZM26.2272 10.3306V14.634H28.7103V13.9101H27.1087V12.7303H28.6693V12.0064H27.11V11.0546H28.7116V10.3306H26.2272ZM29.3112 10.3306V14.634H30.1914V12.9205H30.2721L31.5124 14.634H32.5938L31.1523 12.8059C31.8186 12.6779 32.194 12.2453 32.194 11.5872C32.194 10.7828 31.6072 10.3306 30.5924 10.3306H29.3112ZM30.1914 11.0156H30.4323C30.9832 11.0156 31.3125 11.2447 31.3125 11.6627C31.3125 12.0966 30.9973 12.3111 30.431 12.3111H30.1914V11.0156ZM5.28647 11.0533H5.56834C6.76888 11.0533 7.20834 11.8248 7.20834 12.5012C7.20834 12.8254 7.11353 13.9101 5.52734 13.9101H5.28647V11.0533Z" fill="#191919"/>
</svg>
