<svg width="37" height="26" viewBox="0 0 37 26" fill="none" xmlns="http://www.w3.org/2000/svg">
<path d="M4.40625 0.5C2.29859 0.5 0.5625 2.19375 0.5625 4.25V21.75C0.5625 23.8062 2.29859 25.5 4.40625 25.5H32.5938C34.7014 25.5 36.4375 23.8062 36.4375 21.75V4.25C36.4375 2.19375 34.7014 0.5 32.5938 0.5H4.40625ZM4.40625 3H32.5938C33.3177 3 33.875 3.54375 33.875 4.25V21.75C33.875 22.4562 33.3177 23 32.5938 23H4.40625C3.68234 23 3.125 22.4562 3.125 21.75V4.25C3.125 3.54375 3.68234 3 4.40625 3ZM22.8639 8.46875C20.3962 8.46875 19.1009 9.65625 19.1009 11.1637C19.1009 13.8925 22.3809 13.5138 22.3809 14.9137C22.3809 15.155 22.1759 15.6975 20.8178 15.6975C19.4597 15.6975 18.5756 15.2288 18.5756 15.2288L18.1784 17.0287C18.1784 17.0287 19.0176 17.535 20.7025 17.535C22.3809 17.535 24.7435 16.275 24.7435 14.4475C24.7435 12.2525 21.4597 12.1075 21.4597 11.1287C21.4597 10.6287 21.8953 10.2288 23.0612 10.2288C23.8223 10.2288 24.6628 10.8162 24.6628 10.8162L25.0651 8.90375C25.0651 8.90375 23.9504 8.4725 22.8614 8.4725L22.8639 8.46875ZM12.3346 8.625L10.1719 14.7975C10.1719 14.7975 10.0642 14.2625 10.0117 13.9375C8.78813 11.2625 6.80859 10.265 6.80859 10.265L8.69203 17.2575H11.2545L14.8548 8.625H12.3372H12.3346ZM15.7773 8.625L14.3757 17.2575H16.7408L18.1413 8.625H15.7773ZM28.5104 8.625L24.6667 17.2575H26.9883L27.4688 16.0475H30.4323L30.6719 17.2575H32.7936L30.9922 8.625H28.5104ZM4.20509 8.6625C4.20509 8.6625 8.81375 10.0437 9.89128 13.43L9.09306 9.52375C9.09306 9.52375 8.74072 8.66125 7.81181 8.66125H4.20637L4.20509 8.6625ZM29.3906 11.125L30.0697 14.3675H28.1478L29.3906 11.125Z" fill="#191919"/>
</svg>
