<svg width="64" height="52" viewBox="0 0 64 52" fill="none" xmlns="http://www.w3.org/2000/svg">
<path d="M0 21.7061C0 20.257 1.28125 19.0822 2.86176 19.0822C4.44227 19.0822 5.72352 20.257 5.72352 21.7061V30.2932C5.72352 31.7423 4.44227 32.9171 2.86176 32.9171C1.28125 32.9171 0 31.7423 0 30.2932V21.7061Z" fill="black"/>
<path d="M9.88656 12.165C9.88656 10.7159 11.1678 9.54112 12.7483 9.54112C14.3288 9.54112 15.6101 10.7159 15.6101 12.165V39.8347C15.6101 41.2838 14.3288 42.4586 12.7483 42.4586C11.1678 42.4586 9.88656 41.2838 9.88656 39.8347V12.165Z" fill="black"/>
<path d="M19.7722 18.8433C19.7722 17.3942 21.0535 16.2195 22.634 16.2195C24.2145 16.2195 25.4957 17.3942 25.4957 18.8433V33.1553C25.4957 34.6044 24.2145 35.7791 22.634 35.7791C21.0535 35.7791 19.7722 34.6044 19.7722 33.1553V18.8433Z" fill="black"/>
<path d="M29.6579 2.62388C29.6579 1.17477 30.9391 3.05176e-05 32.5196 3.05176e-05C34.1001 3.05176e-05 35.3814 1.17477 35.3814 2.62388V49.3762C35.3814 50.8253 34.1001 52 32.5196 52C30.9391 52 29.6579 50.8253 29.6579 49.3762V2.62388Z" fill="black"/>
<path d="M39.5444 18.8433C39.5444 17.3942 40.8257 16.2195 42.4062 16.2195C43.9867 16.2195 45.268 17.3942 45.268 18.8433V33.1553C45.268 34.6044 43.9867 35.7791 42.4062 35.7791C40.8257 35.7791 39.5444 34.6044 39.5444 33.1553V18.8433Z" fill="black"/>
<path d="M49.4301 12.165C49.4301 10.7159 50.7113 9.54112 52.2919 9.54112C53.8724 9.54112 55.1536 10.7159 55.1536 12.165V39.8347C55.1536 41.2838 53.8724 42.4586 52.2919 42.4586C50.7113 42.4586 49.4301 41.2838 49.4301 39.8347V12.165Z" fill="black"/>
<path d="M58.2765 21.7061C58.2765 20.257 59.5577 19.0822 61.1382 19.0822C62.7187 19.0822 64 20.257 64 21.7061V30.2932C64 31.7423 62.7187 32.9171 61.1382 32.9171C59.5577 32.9171 58.2765 31.7423 58.2765 30.2932V21.7061Z" fill="black"/>
</svg>
